<mxfile host="app.diagrams.net" agent="Mozilla/5.0 (Macintosh; Intel Mac OS X 10_15_7) AppleWebKit/537.36 (KHTML, like Gecko) Chrome/136.0.0.0 Safari/537.36" version="27.0.5">
  <diagram name="Page-1" id="Rk2ZpdnKtIK4g7cDtlQd">
    <mxGraphModel dx="1072" dy="622" grid="1" gridSize="10" guides="1" tooltips="1" connect="1" arrows="1" fold="1" page="1" pageScale="1" pageWidth="827" pageHeight="1169" math="0" shadow="0">
      <root>
        <mxCell id="0" />
        <mxCell id="1" parent="0" />
        <mxCell id="x_KmR65wNgwXbXMXoJA8-1" value="Web&lt;br&gt;&lt;br&gt;&lt;br&gt;&lt;div&gt;&lt;br&gt;&lt;br&gt;&lt;/div&gt;" style="ellipse;shape=cloud;whiteSpace=wrap;html=1;align=center;" parent="1" vertex="1">
          <mxGeometry x="100" y="40" width="230" height="140" as="geometry" />
        </mxCell>
        <mxCell id="x_KmR65wNgwXbXMXoJA8-2" value="Immoscout24.ch" style="rounded=0;whiteSpace=wrap;html=1;" parent="1" vertex="1">
          <mxGeometry x="162.5" y="100" width="105" height="40" as="geometry" />
        </mxCell>
        <mxCell id="x_KmR65wNgwXbXMXoJA8-3" value="" style="rounded=1;whiteSpace=wrap;html=1;fillColor=#dae8fc;strokeColor=#6c8ebf;" parent="1" vertex="1">
          <mxGeometry x="220" y="320" width="320" height="280" as="geometry" />
        </mxCell>
        <mxCell id="x_KmR65wNgwXbXMXoJA8-7" value="&lt;font style=&quot;font-size: 14px; color: light-dark(rgb(0, 0, 0), rgb(0, 0, 0));&quot;&gt;seilm7.bfh-webdev.ch&lt;/font&gt;" style="text;html=1;align=center;verticalAlign=middle;resizable=0;points=[];autosize=1;strokeColor=none;fillColor=none;" parent="1" vertex="1">
          <mxGeometry x="220" y="330" width="160" height="30" as="geometry" />
        </mxCell>
        <mxCell id="x_KmR65wNgwXbXMXoJA8-11" style="edgeStyle=orthogonalEdgeStyle;rounded=0;orthogonalLoop=1;jettySize=auto;html=1;" parent="1" source="x_KmR65wNgwXbXMXoJA8-8" edge="1">
          <mxGeometry relative="1" as="geometry">
            <Array as="points">
              <mxPoint x="380" y="120" />
            </Array>
            <mxPoint x="270" y="120" as="targetPoint" />
          </mxGeometry>
        </mxCell>
        <mxCell id="x_KmR65wNgwXbXMXoJA8-8" value="&lt;h4&gt;&lt;font style=&quot;font-size: 14px;&quot;&gt;Web Scraper /&lt;br&gt;Data Dispatcher&lt;/font&gt;&lt;/h4&gt;" style="rounded=0;whiteSpace=wrap;html=1;" parent="1" vertex="1">
          <mxGeometry x="320" y="230" width="120" height="60" as="geometry" />
        </mxCell>
        <mxCell id="x_KmR65wNgwXbXMXoJA8-9" value="&lt;h4&gt;CSV&lt;/h4&gt;" style="shape=cylinder3;whiteSpace=wrap;html=1;boundedLbl=1;backgroundOutline=1;size=15;" parent="1" vertex="1">
          <mxGeometry x="190" y="220" width="60" height="80" as="geometry" />
        </mxCell>
        <mxCell id="x_KmR65wNgwXbXMXoJA8-10" style="edgeStyle=orthogonalEdgeStyle;rounded=0;orthogonalLoop=1;jettySize=auto;html=1;entryX=1;entryY=0.5;entryDx=0;entryDy=0;entryPerimeter=0;" parent="1" source="x_KmR65wNgwXbXMXoJA8-8" target="x_KmR65wNgwXbXMXoJA8-9" edge="1">
          <mxGeometry relative="1" as="geometry">
            <Array as="points">
              <mxPoint x="260" y="260" />
              <mxPoint x="260" y="260" />
            </Array>
          </mxGeometry>
        </mxCell>
        <mxCell id="x_KmR65wNgwXbXMXoJA8-12" value="" style="rounded=1;whiteSpace=wrap;html=1;fillColor=#d5e8d4;strokeColor=#82b366;" parent="1" vertex="1">
          <mxGeometry x="670" y="320" width="390" height="280" as="geometry" />
        </mxCell>
        <mxCell id="x_KmR65wNgwXbXMXoJA8-16" value="&lt;font style=&quot;font-size: 14px; color: light-dark(rgb(0, 0, 0), rgb(0, 0, 0));&quot;&gt;hasls6.bfh-webdev.ch&lt;/font&gt;" style="text;html=1;align=center;verticalAlign=middle;resizable=1;points=[];autosize=1;strokeColor=none;fillColor=none;movable=1;rotatable=1;deletable=1;editable=1;locked=0;connectable=1;" parent="1" vertex="1">
          <mxGeometry x="690" y="330" width="160" height="30" as="geometry" />
        </mxCell>
        <mxCell id="x_KmR65wNgwXbXMXoJA8-29" style="edgeStyle=orthogonalEdgeStyle;rounded=0;orthogonalLoop=1;jettySize=auto;html=1;entryX=0.5;entryY=1;entryDx=0;entryDy=0;" parent="1" source="x_KmR65wNgwXbXMXoJA8-17" target="x_KmR65wNgwXbXMXoJA8-22" edge="1">
          <mxGeometry relative="1" as="geometry">
            <Array as="points">
              <mxPoint x="740" y="460" />
              <mxPoint x="390" y="460" />
            </Array>
          </mxGeometry>
        </mxCell>
        <mxCell id="-FkZfctd0c46OQjU8CFW-1" style="edgeStyle=orthogonalEdgeStyle;rounded=0;orthogonalLoop=1;jettySize=auto;html=1;entryX=0;entryY=0.5;entryDx=0;entryDy=0;" parent="1" source="x_KmR65wNgwXbXMXoJA8-17" target="x_KmR65wNgwXbXMXoJA8-20" edge="1">
          <mxGeometry relative="1" as="geometry" />
        </mxCell>
        <mxCell id="x_KmR65wNgwXbXMXoJA8-17" value="&lt;h4&gt;&lt;span style=&quot;font-size: 14px;&quot;&gt;Webdev API&lt;/span&gt;&lt;/h4&gt;" style="rounded=0;whiteSpace=wrap;html=1;" parent="1" vertex="1">
          <mxGeometry x="710" y="380" width="120" height="60" as="geometry" />
        </mxCell>
        <mxCell id="x_KmR65wNgwXbXMXoJA8-18" value="&lt;h4&gt;Postgres&lt;/h4&gt;" style="shape=cylinder3;whiteSpace=wrap;html=1;boundedLbl=1;backgroundOutline=1;size=15;" parent="1" vertex="1">
          <mxGeometry x="740" y="490" width="60" height="80" as="geometry" />
        </mxCell>
        <mxCell id="x_KmR65wNgwXbXMXoJA8-19" style="edgeStyle=orthogonalEdgeStyle;rounded=0;orthogonalLoop=1;jettySize=auto;html=1;entryX=0.5;entryY=0;entryDx=0;entryDy=0;entryPerimeter=0;" parent="1" source="x_KmR65wNgwXbXMXoJA8-17" target="x_KmR65wNgwXbXMXoJA8-18" edge="1">
          <mxGeometry relative="1" as="geometry" />
        </mxCell>
        <mxCell id="x_KmR65wNgwXbXMXoJA8-20" value="&lt;h4&gt;&lt;span style=&quot;font-size: 14px;&quot;&gt;Website Frontend&lt;/span&gt;&lt;/h4&gt;" style="rounded=0;whiteSpace=wrap;html=1;" parent="1" vertex="1">
          <mxGeometry x="890" y="372.5" width="140" height="75" as="geometry" />
        </mxCell>
        <mxCell id="x_KmR65wNgwXbXMXoJA8-21" value="&lt;h4&gt;&lt;span style=&quot;font-size: 14px;&quot;&gt;Model Training&lt;/span&gt;&lt;/h4&gt;" style="rounded=0;whiteSpace=wrap;html=1;" parent="1" vertex="1">
          <mxGeometry x="490" y="180" width="156" height="70" as="geometry" />
        </mxCell>
        <mxCell id="x_KmR65wNgwXbXMXoJA8-32" style="edgeStyle=orthogonalEdgeStyle;rounded=0;orthogonalLoop=1;jettySize=auto;html=1;entryX=0.25;entryY=0;entryDx=0;entryDy=0;" parent="1" source="x_KmR65wNgwXbXMXoJA8-22" target="x_KmR65wNgwXbXMXoJA8-23" edge="1">
          <mxGeometry relative="1" as="geometry">
            <Array as="points">
              <mxPoint x="360" y="460" />
              <mxPoint x="360" y="460" />
            </Array>
          </mxGeometry>
        </mxCell>
        <mxCell id="x_KmR65wNgwXbXMXoJA8-22" value="&lt;h4&gt;&lt;span style=&quot;font-size: 14px;&quot;&gt;Inference API&lt;/span&gt;&lt;/h4&gt;" style="rounded=0;whiteSpace=wrap;html=1;" parent="1" vertex="1">
          <mxGeometry x="330" y="380" width="120" height="60" as="geometry" />
        </mxCell>
        <mxCell id="x_KmR65wNgwXbXMXoJA8-23" value="&lt;h4&gt;&lt;span style=&quot;font-size: 14px;&quot;&gt;MLFlow&lt;/span&gt;&lt;/h4&gt;" style="rounded=0;whiteSpace=wrap;html=1;" parent="1" vertex="1">
          <mxGeometry x="330" y="490" width="120" height="60" as="geometry" />
        </mxCell>
        <mxCell id="x_KmR65wNgwXbXMXoJA8-25" style="edgeStyle=orthogonalEdgeStyle;rounded=0;orthogonalLoop=1;jettySize=auto;html=1;" parent="1" source="x_KmR65wNgwXbXMXoJA8-8" target="x_KmR65wNgwXbXMXoJA8-17" edge="1">
          <mxGeometry relative="1" as="geometry">
            <Array as="points">
              <mxPoint x="470" y="260" />
              <mxPoint x="470" y="410" />
            </Array>
          </mxGeometry>
        </mxCell>
        <mxCell id="x_KmR65wNgwXbXMXoJA8-27" style="edgeStyle=orthogonalEdgeStyle;rounded=0;orthogonalLoop=1;jettySize=auto;html=1;entryX=0.5;entryY=1;entryDx=0;entryDy=0;" parent="1" source="x_KmR65wNgwXbXMXoJA8-17" target="x_KmR65wNgwXbXMXoJA8-21" edge="1">
          <mxGeometry relative="1" as="geometry">
            <Array as="points">
              <mxPoint x="568" y="390" />
            </Array>
          </mxGeometry>
        </mxCell>
      </root>
    </mxGraphModel>
  </diagram>
</mxfile>
